<?xml version="1.0" encoding="UTF-8"?>
<svg width="21px" height="21px" viewBox="0 0 21 21" version="1.1" xmlns="http://www.w3.org/2000/svg" xmlns:xlink="http://www.w3.org/1999/xlink">
    <!-- Generator: Sketch 46.2 (44496) - http://www.bohemiancoding.com/sketch -->
    <title>Fill 1</title>
    <desc>Created with Sketch.</desc>
    <defs></defs>
    <g id="sign" stroke="none" stroke-width="1" fill="none" fill-rule="evenodd">
        <g transform="translate(-622.000000, -681.000000)" id="Fill-1" fill="#565656">
            <path d="M637.717639,696.166635 L627.120391,696.166635 L627.120391,688.414066 L632.005229,692.119172 C632.136191,692.219332 632.329949,692.269371 632.486219,692.269371 C632.646139,692.269371 632.784936,692.216912 632.917375,692.112281 L637.717639,688.293809 L637.717639,696.166635 Z M637.230537,686.833324 L632.496104,690.576164 L627.607697,686.833324 L637.230537,686.833324 Z M632.5,681 C626.701006,681 622,685.700965 622,691.5 C622,697.298994 626.701006,702 632.5,702 C638.299035,702 643,697.298994 643,691.5 C643,685.700965 638.299035,681 632.5,681 L632.5,681 Z"></path>
        </g>
    </g>
</svg>