<?xml version="1.0" standalone="no"?>
<!DOCTYPE svg PUBLIC "-//W3C//DTD SVG 1.0//EN" "http://www.w3.org/TR/2001/REC-SVG-20010904/DTD/svg10.dtd">
<svg xmlns="http://www.w3.org/2000/svg" xmlns:xlink="http://www.w3.org/1999/xlink" id="body_1" width="40" height="40">

<g transform="matrix(1.904762 0 0 1.904762 0 0)">
	<g>
		<g transform="matrix(1 0 0 1 -622 -681)">
            <path d="M637.71765 696.1666L627.12036 696.1666L627.12036 688.41406L632.00525 692.1192C 632.13617 692.21936 632.32996 692.26935 632.4862 692.26935C 632.6461 692.26935 632.7849 692.2169 632.91736 692.1123L632.91736 692.1123L637.71765 688.2938L637.71765 696.1666zM637.2305 686.8333L632.4961 690.5762L627.6077 686.8333L637.2305 686.8333zM632.5 681C 626.701 681 622 685.701 622 691.5C 622 697.299 626.701 702 632.5 702C 638.299 702 643 697.299 643 691.5C 643 685.701 638.299 681 632.5 681z" stroke="none" fill="#565656" fill-rule="nonzero" />
		</g>
	</g>
</g>
</svg>